# Wavefront OBJ file
# Exported by Misfit Model 3D 1.3.8
# Thu Mar 10 09:04:35 2016

mtllib coin.mtl

# 18 Vertices
v -2.929889 4.319524 -0.434705
v -2.93101 1.797979 -0.433656
v 0.000673 3.058094 -0.727539
v -2.930795 4.32096 0.544165
v -2.931917 1.799417 0.545213
v -0.000673 3.060232 0.727539
v -1.245994 6.116887 -0.467184
v -1.246899 6.118322 0.511687
v 1.182304 6.087675 -0.512949
v 1.181399 6.089112 0.465921
v 2.931917 4.318905 -0.545213
v 2.931011 4.320344 0.433657
v 2.930796 1.797358 -0.544164
v 2.92989 1.798796 0.434705
v 1.246899 0.0 -0.511687
v 1.245994 0.001433 0.467184
v -1.181397 0.02921 -0.46592
v -1.182305 0.030646 0.512949

# 96 Texture Coordinates
vt 0.874205 0.477492
vt 0.764568 0.741549
vt 0.49999 0.477492
vt 0.351748 0.708094
vt 0.365131 0.67515
vt 0.351748 0.708094
vt 0.351748 0.708094
vt 0.365131 0.67515
vt 0.365131 0.67515
vt 0.764568 0.741549
vt 0.874205 0.477492
vt 0.49999 0.477492
vt 0.764568 0.741549
vt 0.49999 0.850163
vt 0.49999 0.477492
vt 0.318804 0.721477
vt 0.351748 0.708094
vt 0.318804 0.721477
vt 0.318804 0.721477
vt 0.351748 0.708094
vt 0.351748 0.708094
vt 0.49999 0.850163
vt 0.764568 0.741549
vt 0.49999 0.477492
vt 0.49999 0.850163
vt 0.235417 0.741549
vt 0.49999 0.477492
vt 0.285344 0.708094
vt 0.318804 0.721477
vt 0.285344 0.708094
vt 0.285344 0.708094
vt 0.318804 0.721477
vt 0.318804 0.721477
vt 0.235417 0.741549
vt 0.49999 0.850163
vt 0.49999 0.477492
vt 0.235417 0.741549
vt 0.125775 0.477492
vt 0.49999 0.477492
vt 0.271961 0.67515
vt 0.285344 0.708094
vt 0.271961 0.67515
vt 0.271961 0.67515
vt 0.285344 0.708094
vt 0.285344 0.708094
vt 0.125775 0.477492
vt 0.235417 0.741549
vt 0.49999 0.477492
vt 0.125775 0.477492
vt 0.235417 0.213431
vt 0.49999 0.477492
vt 0.285344 0.641689
vt 0.271961 0.67515
vt 0.285344 0.641689
vt 0.285344 0.641689
vt 0.271961 0.67515
vt 0.271961 0.67515
vt 0.235417 0.213431
vt 0.125775 0.477492
vt 0.49999 0.477492
vt 0.235417 0.213431
vt 0.49999 0.103789
vt 0.49999 0.477492
vt 0.318804 0.628306
vt 0.285344 0.641689
vt 0.318804 0.628306
vt 0.318804 0.628306
vt 0.285344 0.641689
vt 0.285344 0.641689
vt 0.49999 0.103789
vt 0.235417 0.213431
vt 0.49999 0.477492
vt 0.49999 0.103789
vt 0.764568 0.213431
vt 0.49999 0.477492
vt 0.351748 0.641689
vt 0.318804 0.628306
vt 0.351748 0.641689
vt 0.351748 0.641689
vt 0.318804 0.628306
vt 0.318804 0.628306
vt 0.764568 0.213431
vt 0.49999 0.103789
vt 0.49999 0.477492
vt 0.764568 0.213431
vt 0.874205 0.477492
vt 0.49999 0.477492
vt 0.365131 0.67515
vt 0.351748 0.641689
vt 0.365131 0.67515
vt 0.365131 0.67515
vt 0.351748 0.641689
vt 0.351748 0.641689
vt 0.874205 0.477492
vt 0.764568 0.213431
vt 0.49999 0.477492

# 96 Vertex Normals
vn -0.804351 -0.211608 -0.555195
vn -0.732515 0.394955 -0.554465
vn -0.018784 -0.00041 -0.999824
vn -0.732515 0.394955 -0.554465
vn -0.804351 -0.211608 -0.555195
vn -0.79975 0.20892 0.562808
vn -0.79975 0.20892 0.562808
vn -0.804351 -0.211608 -0.555195
vn -0.713966 -0.413695 0.564898
vn -0.79975 0.20892 0.562808
vn -0.713966 -0.413695 0.564898
vn 0.018784 0.00041 0.999824
vn -0.732515 0.394955 -0.554465
vn -0.225829 0.794504 -0.563706
vn -0.018784 -0.00041 -0.999824
vn -0.225829 0.794504 -0.563706
vn -0.732515 0.394955 -0.554465
vn -0.417195 0.711123 0.565909
vn -0.417195 0.711123 0.565909
vn -0.732515 0.394955 -0.554465
vn -0.79975 0.20892 0.562808
vn -0.417195 0.711123 0.565909
vn -0.79975 0.20892 0.562808
vn 0.018784 0.00041 0.999824
vn -0.225829 0.794504 -0.563706
vn 0.410421 0.71688 -0.563593
vn -0.018784 -0.00041 -0.999824
vn 0.410421 0.71688 -0.563593
vn -0.225829 0.794504 -0.563706
vn 0.232956 0.79638 0.558131
vn 0.232956 0.79638 0.558131
vn -0.225829 0.794504 -0.563706
vn -0.417195 0.711123 0.565909
vn 0.232956 0.79638 0.558131
vn -0.417195 0.711123 0.565909
vn 0.018784 0.00041 0.999824
vn 0.410421 0.71688 -0.563593
vn 0.796592 0.214715 -0.5651
vn -0.018784 -0.00041 -0.999824
vn 0.796592 0.214715 -0.5651
vn 0.410421 0.71688 -0.563593
vn 0.724531 0.408149 0.5554
vn 0.724531 0.408149 0.5554
vn 0.410421 0.71688 -0.563593
vn 0.232956 0.79638 0.558131
vn 0.724531 0.408149 0.5554
vn 0.232956 0.79638 0.558131
vn 0.018784 0.00041 0.999824
vn 0.796592 0.214715 -0.5651
vn 0.722912 -0.401652 -0.562205
vn -0.018784 -0.00041 -0.999824
vn 0.722912 -0.401652 -0.562205
vn 0.796592 0.214715 -0.5651
vn 0.807014 -0.204907 0.553842
vn 0.807014 -0.204907 0.553842
vn 0.796592 0.214715 -0.5651
vn 0.724531 0.408149 0.5554
vn 0.807014 -0.204907 0.553842
vn 0.724531 0.408149 0.5554
vn 0.018784 0.00041 0.999824
vn 0.722912 -0.401652 -0.562205
vn 0.205744 -0.799249 -0.564686
vn -0.018784 -0.00041 -0.999824
vn 0.205744 -0.799249 -0.564686
vn 0.722912 -0.401652 -0.562205
vn 0.434212 -0.70362 0.562475
vn 0.434212 -0.70362 0.562475
vn 0.722912 -0.401652 -0.562205
vn 0.807014 -0.204907 0.553842
vn 0.434212 -0.70362 0.562475
vn 0.807014 -0.204907 0.553842
vn 0.018784 0.00041 0.999824
vn 0.205744 -0.799249 -0.564686
vn -0.428121 -0.711523 -0.557178
vn -0.018784 -0.00041 -0.999824
vn -0.428121 -0.711523 -0.557178
vn 0.205744 -0.799249 -0.564686
vn -0.212674 -0.798864 0.56266
vn -0.212674 -0.798864 0.56266
vn 0.205744 -0.799249 -0.564686
vn 0.434212 -0.70362 0.562475
vn -0.212674 -0.798864 0.56266
vn 0.434212 -0.70362 0.562475
vn 0.018784 0.00041 0.999824
vn -0.428121 -0.711523 -0.557178
vn -0.804351 -0.211608 -0.555195
vn -0.018784 -0.00041 -0.999824
vn -0.804351 -0.211608 -0.555195
vn -0.428121 -0.711523 -0.557178
vn -0.713966 -0.413695 0.564898
vn -0.713966 -0.413695 0.564898
vn -0.428121 -0.711523 -0.557178
vn -0.212674 -0.798864 0.56266
vn -0.713966 -0.413695 0.564898
vn -0.212674 -0.798864 0.56266
vn 0.018784 0.00041 0.999824

# DrawCall_2, 32 grouped triangles

usemtl coin
o DrawCall_2
g DrawCall_2

f 2/1/1 1/2/2 3/3/3
f 1/4/4 2/5/5 4/6/6
f 4/7/7 2/8/8 5/9/9
f 4/10/10 5/11/11 6/12/12
f 1/13/13 7/14/14 3/15/15
f 7/16/16 1/17/17 8/18/18
f 8/19/19 1/20/20 4/21/21
f 8/22/22 4/23/23 6/24/24
f 7/25/25 9/26/26 3/27/27
f 9/28/28 7/29/29 10/30/30
f 10/31/31 7/32/32 8/33/33
f 10/34/34 8/35/35 6/36/36
f 9/37/37 11/38/38 3/39/39
f 11/40/40 9/41/41 12/42/42
f 12/43/43 9/44/44 10/45/45
f 12/46/46 10/47/47 6/48/48
f 11/49/49 13/50/50 3/51/51
f 13/52/52 11/53/53 14/54/54
f 14/55/55 11/56/56 12/57/57
f 14/58/58 12/59/59 6/60/60
f 13/61/61 15/62/62 3/63/63
f 15/64/64 13/65/65 16/66/66
f 16/67/67 13/68/68 14/69/69
f 16/70/70 14/71/71 6/72/72
f 15/73/73 17/74/74 3/75/75
f 17/76/76 15/77/77 18/78/78
f 18/79/79 15/80/80 16/81/81
f 18/82/82 16/83/83 6/84/84
f 17/85/85 2/86/86 3/87/87
f 2/88/88 17/89/89 5/90/90
f 5/91/91 17/92/92 18/93/93
f 5/94/94 18/95/95 6/96/96
